<svg width="33" height="33" viewBox="0 0 33 33" fill="none" xmlns="http://www.w3.org/2000/svg">
<path d="M16.5 32C25.0604 32 32 25.0604 32 16.5C32 7.93959 25.0604 1 16.5 1C7.93959 1 1 7.93959 1 16.5C1 25.0604 7.93959 32 16.5 32Z" stroke="#979797"/>
<path fill-rule="evenodd" clip-rule="evenodd" d="M13.0699 8.5V10.7732L11.0793 11.1622L9.5 13.7901H10.9261L11.6928 25.5H21.3072L22.0728 13.7901H23.5L21.9218 11.1622L19.9291 10.7732V8.5H13.0699ZM14.0908 9.48238H18.9082V10.5718L16.5 10.1013L14.0908 10.5718V9.48238ZM11.7326 12.0366L16.5 11.1043L21.2674 12.0366L21.7298 12.8077H11.2691L11.7326 12.0366ZM11.949 13.7901H21.0499L20.3496 24.5176H18.4141V19.1539H17.3922V24.5176H15.6068V19.1539H14.5859V24.5176H12.6514L11.949 13.7901Z" fill="#979797"/>
</svg>
