<svg width="24" height="24" viewBox="0 0 24 24" fill="none" xmlns="http://www.w3.org/2000/svg">
<path fill-rule="evenodd" clip-rule="evenodd" d="M23 12C23 5.92528 18.0747 1 12 1C5.92528 1 1 5.92528 1 12C1 18.0747 5.92528 23 12 23C18.0747 23 23 18.0747 23 12Z" stroke="#7539AD" stroke-width="2"/>
<path fill-rule="evenodd" clip-rule="evenodd" d="M12.0153 17.2028C12.0153 17.4233 12.0056 17.6438 11.9808 17.859C11.3741 18.0698 10.7223 18.1823 10.0413 18.1823C6.75482 18.1823 4.09082 15.5175 4.09082 12.2318C4.09082 12.0113 4.09982 11.7908 4.12457 11.5755C4.73207 11.3648 5.37857 11.2515 6.05957 11.2515C9.35057 11.2515 12.0153 13.9163 12.0153 17.2028Z" stroke="#7539AD" stroke-width="2" stroke-linecap="round" stroke-linejoin="round"/>
<path fill-rule="evenodd" clip-rule="evenodd" d="M11.9469 17.2028C11.9469 17.4233 11.9566 17.6438 11.9806 17.859C12.5881 18.0698 13.2399 18.1823 13.9209 18.1823C17.2074 18.1823 19.8714 15.5175 19.8714 12.2318C19.8714 12.0113 19.8616 11.7908 19.8376 11.5755C19.2301 11.3648 18.5836 11.2515 17.9026 11.2515C14.6116 11.2515 11.9469 13.9163 11.9469 17.2028Z" stroke="#7539AD" stroke-width="2" stroke-linecap="round" stroke-linejoin="round"/>
<path d="M4.12457 11.5752C4.09982 11.7904 4.09082 12.0109 4.09082 12.2314C4.09082 15.5179 6.75482 18.1827 10.0413 18.1827C10.7223 18.1827 11.3741 18.0702 11.9808 17.8594" stroke="#7539AD" stroke-width="2" stroke-linecap="round" stroke-linejoin="round"/>
<path fill-rule="evenodd" clip-rule="evenodd" d="M14.4706 8.04675C14.4706 9.40275 13.3718 10.5015 12.0158 10.5015C10.6591 10.5015 9.5603 9.40275 9.5603 8.04675C9.5603 6.69075 10.6591 5.59125 12.0158 5.59125C13.3718 5.59125 14.4706 6.69075 14.4706 8.04675Z" stroke="#7539AD" stroke-width="2" stroke-linecap="round" stroke-linejoin="round"/>
<path d="M11.981 17.8594V11.2519" stroke="#7539AD" stroke-width="2" stroke-linecap="round" stroke-linejoin="round"/>
</svg>
