<svg width="24" height="24" viewBox="0 0 24 24" fill="none" xmlns="http://www.w3.org/2000/svg">
<path fill-rule="evenodd" clip-rule="evenodd" d="M23 12C23 5.92528 18.0747 1 12 1C5.92528 1 1 5.92528 1 12C1 18.0747 5.92528 23 12 23C18.0747 23 23 18.0747 23 12Z" stroke="#7539AD" stroke-width="2"/>
<path fill-rule="evenodd" clip-rule="evenodd" d="M16.4234 11.0358C16.4234 12.7916 15.4994 14.3313 14.1112 15.1961C13.3612 15.6633 12.4747 15.9341 11.5252 15.9341C8.82069 15.9341 6.62769 13.7403 6.62769 11.0358C6.62769 8.33057 8.82069 6.13757 11.5252 6.13757C14.2304 6.13757 16.4234 8.33057 16.4234 11.0358Z" stroke="#7539AD" stroke-width="2" stroke-linecap="round" stroke-linejoin="round"/>
<path d="M17.8927 19.3623L14.4645 14.9545" stroke="#7539AD" stroke-width="2" stroke-linecap="round" stroke-linejoin="round"/>
</svg>
